<?xml version="1.0" standalone="no"?>
<!DOCTYPE svg PUBLIC "-//W3C//DTD SVG 20010904//EN"
 "http://www.w3.org/TR/2001/REC-SVG-20010904/DTD/svg10.dtd">
<svg version="1.0" xmlns="http://www.w3.org/2000/svg"
 width="28.000000pt" height="28.000000pt" viewBox="0 0 28.000000 28.000000"
 preserveAspectRatio="xMidYMid meet">

<g transform="translate(0.000000,28.000000) scale(0.100000,-0.100000)"
fill="#000000" stroke="none">
<path d="M101 258 c-6 -7 -16 -13 -21 -13 -8 0 -60 -52 -60 -61 0 -3 13 5 29
18 15 13 26 27 23 32 -3 5 0 6 6 2 6 -3 17 1 25 9 12 11 17 12 20 2 3 -7 6 -5
6 6 1 20 -10 22 -28 5z"/>
<path d="M143 251 c-7 -11 -22 -21 -35 -23 -29 -4 -52 -46 -36 -66 20 -23 45
-33 45 -16 0 7 -2 12 -5 9 -3 -2 -13 0 -22 5 -20 11 -17 46 3 48 7 0 37 5 67
10 30 6 57 8 59 6 2 -2 -1 -4 -7 -4 -6 0 1 -21 17 -48 31 -53 29 -70 -11 -101
l-26 -21 11 29 c9 25 8 33 -8 50 -10 12 -26 21 -35 21 -9 0 -23 11 -30 25 -9
17 -17 22 -24 15 -7 -7 -5 -14 5 -22 9 -7 22 -32 29 -56 11 -36 12 -45 0 -52
-7 -4 -19 -6 -27 -3 -7 3 -13 -1 -13 -8 0 -7 3 -10 6 -6 3 3 15 -3 27 -14 24
-22 43 -23 75 -5 87 48 79 193 -13 232 -42 17 -38 18 -52 -5z m17 -121 c0 -5
-4 -10 -10 -10 -5 0 -10 5 -10 10 0 6 5 10 10 10 6 0 10 -4 10 -10z m7 -62
c-3 -8 -6 -5 -6 6 -1 11 2 17 5 13 3 -3 4 -12 1 -19z m7 -33 c-4 -8 -10 -15
-14 -15 -4 0 -10 7 -14 15 -4 10 1 15 14 15 13 0 18 -5 14 -15z"/>
<path d="M190 168 c6 -7 17 -22 25 -33 12 -17 14 -18 15 -3 0 9 -7 24 -16 32
-18 19 -40 22 -24 4z"/>
<path d="M15 135 c3 -27 14 -48 34 -67 16 -15 32 -24 35 -19 3 4 -5 14 -19 21
-22 12 -36 37 -49 85 -3 11 -3 2 -1 -20z"/>
<path d="M65 110 c10 -11 20 -20 23 -20 3 0 -3 9 -13 20 -10 11 -20 20 -23 20
-3 0 3 -9 13 -20z"/>
</g>
</svg>
